<svg xmlns="http://www.w3.org/2000/svg"  viewBox="0 0 64 64" width="64px" height="64px"><linearGradient id="fLfGEGHazQctuI7MrOEnAa" x1="32" x2="32" y1="5.918" y2="57.044" gradientUnits="userSpaceOnUse" spreadMethod="reflect"><stop offset="0" stop-color="#1a6dff"/><stop offset="1" stop-color="#c822ff"/></linearGradient><path fill="url(#fLfGEGHazQctuI7MrOEnAa)" d="M32,6C17.66,6,6,17.66,6,32c0,12.28,8.54,22.59,20,25.29v-2.05C15.66,52.57,8,43.16,8,32 C8,18.77,18.77,8,32,8s24,10.77,24,24c0,11.16-7.66,20.57-18,23.24v2.05C49.46,54.59,58,44.28,58,32C58,17.66,46.34,6,32,6z"/><linearGradient id="fLfGEGHazQctuI7MrOEnAb" x1="32" x2="32" y1="5.995" y2="56.839" gradientUnits="userSpaceOnUse" spreadMethod="reflect"><stop offset="0" stop-color="#1a6dff"/><stop offset="1" stop-color="#c822ff"/></linearGradient><path fill="url(#fLfGEGHazQctuI7MrOEnAb)" d="M32,10c-12.13,0-22,9.87-22,22c0,10.05,6.77,18.55,16,21.16v-2.08C17.9,48.53,12,40.94,12,32 c0-11.03,8.97-20,20-20s20,8.97,20,20c0,8.94-5.9,16.53-14,19.08v2.08C47.23,50.55,54,42.05,54,32C54,19.87,44.13,10,32,10z"/><linearGradient id="fLfGEGHazQctuI7MrOEnAc" x1="32" x2="32" y1="6.148" y2="56.498" gradientUnits="userSpaceOnUse" spreadMethod="reflect"><stop offset="0" stop-color="#1a6dff"/><stop offset="1" stop-color="#c822ff"/></linearGradient><path fill="url(#fLfGEGHazQctuI7MrOEnAc)" d="M32,14c-9.93,0-18,8.08-18,18c0,7.82,5.01,14.49,12,16.97v-2.14C20.14,44.45,16,38.7,16,32 c0-8.82,7.18-16,16-16s16,7.18,16,16c0,6.7-4.14,12.45-10,14.83v2.14c6.99-2.48,12-9.15,12-16.97C50,22.08,41.93,14,32,14z"/><linearGradient id="fLfGEGHazQctuI7MrOEnAd" x1="32" x2="32" y1="6.499" y2="55.834" gradientUnits="userSpaceOnUse" spreadMethod="reflect"><stop offset="0" stop-color="#1a6dff"/><stop offset="1" stop-color="#c822ff"/></linearGradient><path fill="url(#fLfGEGHazQctuI7MrOEnAd)" d="M32,18c-7.72,0-14,6.28-14,14c0,5.58,3.28,10.4,8,12.65v-2.26c-3.58-2.08-6-5.95-6-10.39 c0-6.62,5.38-12,12-12s12,5.38,12,12c0,4.44-2.42,8.31-6,10.39v2.26c4.72-2.25,8-7.07,8-12.65C46,24.28,39.72,18,32,18z"/><linearGradient id="fLfGEGHazQctuI7MrOEnAe" x1="32" x2="32" y1="7.533" y2="54.157" gradientUnits="userSpaceOnUse" spreadMethod="reflect"><stop offset="0" stop-color="#1a6dff"/><stop offset="1" stop-color="#c822ff"/></linearGradient><path fill="url(#fLfGEGHazQctuI7MrOEnAe)" d="M32,22c-5.51,0-10,4.49-10,10c0,3.26,1.57,6.17,4,7.99v-2.71c-1.24-1.41-2-3.26-2-5.28 c0-4.41,3.59-8,8-8s8,3.59,8,8c0,2.02-0.76,3.87-2,5.28v2.71c2.43-1.82,4-4.73,4-7.99C42,26.49,37.51,22,32,22z"/><linearGradient id="fLfGEGHazQctuI7MrOEnAf" x1="32" x2="32" y1="26" y2="38" gradientUnits="userSpaceOnUse" spreadMethod="reflect"><stop offset="0" stop-color="#6dc7ff"/><stop offset="1" stop-color="#e6abff"/></linearGradient><path fill="url(#fLfGEGHazQctuI7MrOEnAf)" d="M32 26A6 6 0 1 0 32 38A6 6 0 1 0 32 26Z"/></svg>